<svg width="24" height="24" viewBox="0 0 24 24" fill="none" xmlns="http://www.w3.org/2000/svg">
<path d="M22.2028 9.84377C21.5466 9.3572 20.7403 9.00002 19.8891 8.80736C19.7493 8.77592 19.6214 8.70536 19.5202 8.60394C19.419 8.50251 19.3488 8.37439 19.3177 8.23455C18.952 6.60564 18.165 5.20877 17.0081 4.15033C15.6633 2.91799 13.8848 2.24017 12 2.24017C10.343 2.24017 8.8125 2.75955 7.57641 3.74252C6.73867 4.40976 6.06434 5.25948 5.60484 6.22689C5.55503 6.33274 5.48114 6.42547 5.38908 6.49766C5.29703 6.56986 5.18936 6.61952 5.07469 6.64267C3.82078 6.8958 2.68875 7.43345 1.82437 8.19517C0.630937 9.24986 0 10.6519 0 12.2527C0 13.8708 0.679219 15.3464 1.91203 16.4133C3.08953 17.43 4.67484 17.9902 6.375 17.9902H11.25V10.801L9.53016 12.5208C9.45835 12.5926 9.37272 12.6491 9.27845 12.6868C9.18418 12.7245 9.08323 12.7427 8.98172 12.7402C8.88021 12.7378 8.78026 12.7147 8.68792 12.6725C8.59558 12.6303 8.51278 12.5697 8.44453 12.4945C8.17266 12.196 8.19891 11.7305 8.48438 11.445L11.4698 8.46002C11.6105 8.31947 11.8012 8.24052 12 8.24052C12.1988 8.24052 12.3895 8.31947 12.5302 8.46002L15.5156 11.4441C15.81 11.7389 15.8269 12.2222 15.5339 12.518C15.4644 12.5882 15.3817 12.644 15.2906 12.6821C15.1995 12.7203 15.1017 12.74 15.0029 12.7403C14.9041 12.7406 14.8063 12.7213 14.715 12.6836C14.6236 12.646 14.5407 12.5906 14.4708 12.5208L12.75 10.801V17.9902H18.5625C20.0316 17.9902 21.3708 17.5777 22.3336 16.8291C23.4239 15.9806 24 14.7666 24 13.3214C24 11.918 23.3784 10.7147 22.2028 9.84377Z" fill="#21272A"/>
<path d="M11.25 21.0099C11.25 21.2088 11.329 21.3995 11.4697 21.5402C11.6103 21.6808 11.8011 21.7599 12 21.7599C12.1989 21.7599 12.3897 21.6808 12.5303 21.5402C12.671 21.3995 12.75 21.2088 12.75 21.0099V17.9902H11.25V21.0099Z" fill="#21272A"/>
</svg>
