<svg width="24" height="24" viewBox="0 0 24 24" fill="none" xmlns="http://www.w3.org/2000/svg">
<path d="M13.5 12C11.0203 12 8.83593 9.67031 8.62499 6.80625C8.51718 5.35312 8.96718 4.00781 9.89061 3.01875C10.8 2.03906 12.0844 1.5 13.5 1.5C14.9062 1.5 16.1859 2.04375 17.1 3.02812C18.0281 4.02656 18.4781 5.36719 18.3703 6.80625C18.1594 9.67031 15.975 12 13.5 12ZM13.5 3C12.5062 3 11.6109 3.37031 10.9875 4.04062C10.3547 4.72031 10.0453 5.66719 10.1203 6.69844C10.2703 8.76094 11.8172 10.5047 13.4953 10.5047C15.1734 10.5047 16.7203 8.76094 16.8703 6.69844C16.9453 5.68125 16.6359 4.73906 15.9937 4.05C15.375 3.37031 14.4844 3 13.5 3Z" fill="white"/>
<path d="M21.75 22.5H5.24998C4.79998 22.5 4.39217 22.3125 4.11092 21.975C3.80623 21.6094 3.68436 21.1125 3.77811 20.6109C4.17186 18.4172 5.40936 16.575 7.34998 15.2812C9.07498 14.1328 11.2594 13.5 13.5 13.5C15.7406 13.5 17.925 14.1328 19.65 15.2812C21.5906 16.575 22.8281 18.4172 23.2219 20.6109C23.3109 21.1125 23.189 21.6094 22.8844 21.975C22.6031 22.3125 22.2 22.5 21.75 22.5ZM5.25936 21H21.7406C21.75 20.9766 21.7547 20.9391 21.7453 20.8781C21.0187 16.8422 16.9594 15 13.5 15C10.0406 15 5.98123 16.8422 5.25467 20.8781C5.2453 20.9391 5.24998 20.9766 5.25936 21Z" fill="white"/>
<path d="M4.125 14.25C3.7125 14.25 3.375 13.9125 3.375 13.5V8.25C3.375 7.8375 3.7125 7.5 4.125 7.5C4.5375 7.5 4.875 7.8375 4.875 8.25V13.5C4.875 13.9125 4.5375 14.25 4.125 14.25Z" fill="white"/>
<path d="M6.75 11.625H1.5C1.0875 11.625 0.75 11.2875 0.75 10.875C0.75 10.4625 1.0875 10.125 1.5 10.125H6.75C7.1625 10.125 7.5 10.4625 7.5 10.875C7.5 11.2875 7.1625 11.625 6.75 11.625Z" fill="white"/>
</svg>
