<svg width="24" height="24" viewBox="0 0 24 24" fill="none" xmlns="http://www.w3.org/2000/svg">
<path d="M12.1359 2.25005C6.6525 2.17599 2.17594 6.65255 2.25 12.136C2.32312 17.3949 6.60515 21.6769 11.8641 21.7501C17.3484 21.8251 21.8241 17.3485 21.7491 11.8651C21.6769 6.60521 17.3948 2.32318 12.1359 2.25005ZM18.0619 17.5899C18.0432 17.6101 18.0203 17.6259 17.9948 17.6363C17.9694 17.6466 17.9419 17.6513 17.9145 17.6498C17.887 17.6484 17.8602 17.641 17.8359 17.628C17.8116 17.6151 17.7905 17.5969 17.7741 17.5749C17.3548 17.0263 16.8413 16.5567 16.2577 16.1879C15.0642 15.4219 13.552 15.0001 12 15.0001C10.448 15.0001 8.93578 15.4219 7.74234 16.1879C7.15869 16.5565 6.64523 17.026 6.22594 17.5744C6.20946 17.5965 6.18835 17.6146 6.16409 17.6275C6.13982 17.6405 6.11301 17.6479 6.08554 17.6494C6.05808 17.6508 6.03063 17.6462 6.00516 17.6358C5.97968 17.6255 5.9568 17.6096 5.93812 17.5894C4.56266 16.1046 3.78351 14.1644 3.75 12.1407C3.67359 7.57927 7.41656 3.7613 11.9798 3.75005C16.5431 3.7388 20.25 7.44427 20.25 12.0001C20.2516 14.0726 19.47 16.0692 18.0619 17.5899Z" fill="white"/>
<path d="M12 6.75C11.0756 6.75 10.2398 7.09641 9.64594 7.72594C9.05203 8.35547 8.75531 9.22594 8.82234 10.1602C8.95828 12 10.3837 13.5 12 13.5C13.6162 13.5 15.0389 12 15.1777 10.1606C15.247 9.23531 14.9527 8.37281 14.3489 7.73156C13.7527 7.09875 12.9183 6.75 12 6.75Z" fill="white"/>
</svg>
